<?xml version="1.0" standalone="no"?><!-- Generator: Gravit.io --><svg xmlns="http://www.w3.org/2000/svg" xmlns:xlink="http://www.w3.org/1999/xlink" style="isolation:isolate" viewBox="804.653 337.653 366.694 366.694" width="366.694" height="366.694"><defs><clipPath id="_clipPath_tNSAtPkoAVJin85YQxoK3bOX3G9MWlN9"><rect x="804.653" y="337.653" width="366.694" height="366.694"/></clipPath></defs><g clip-path="url(#_clipPath_tNSAtPkoAVJin85YQxoK3bOX3G9MWlN9)"><g><defs><filter id="3qd1XMywRk2cRPlJQEOvPowDXqHjqMii" x="-200%" y="-200%" width="400%" height="400%" filterUnits="objectBoundingBox" color-interpolation-filters="sRGB"><feGaussianBlur xmlns="http://www.w3.org/2000/svg" stdDeviation="21.46804531419514"/></filter></defs><g filter="url(#3qd1XMywRk2cRPlJQEOvPowDXqHjqMii)"><linearGradient id="_lgradient_2" x1="0.5" y1="0" x2="0.5000000000000001" y2="1" gradientTransform="matrix(266.694,0,0,266.694,854.653,387.653)" gradientUnits="userSpaceOnUse"><stop offset="0%" stop-opacity="1" style="stop-color:rgb(255,255,0)"/><stop offset="39.24378924378931%" stop-opacity="1" style="stop-color:rgb(255,213,0)"/><stop offset="48.26086956521739%" stop-opacity="1" style="stop-color:rgb(241,194,52)"/><stop offset="76.52173913043478%" stop-opacity="1" style="stop-color:rgb(29,188,231)"/><stop offset="100%" stop-opacity="1" style="stop-color:rgb(0,187,255)"/></linearGradient><circle vector-effect="non-scaling-stroke" cx="988.0000000000009" cy="521" r="133.34723424999993" fill="url(#_lgradient_2)"/></g><linearGradient id="_lgradient_3" x1="0.5" y1="0" x2="0.5000000000000001" y2="1" gradientTransform="matrix(255.399,0,0,255.399,860.3,393.3)" gradientUnits="userSpaceOnUse"><stop offset="0%" stop-opacity="1" style="stop-color:rgb(255,255,0)"/><stop offset="39.24378924378931%" stop-opacity="1" style="stop-color:rgb(255,213,0)"/><stop offset="48.26086956521739%" stop-opacity="1" style="stop-color:rgb(241,194,52)"/><stop offset="76.52173913043478%" stop-opacity="1" style="stop-color:rgb(29,188,231)"/><stop offset="100%" stop-opacity="1" style="stop-color:rgb(0,187,255)"/></linearGradient><circle vector-effect="non-scaling-stroke" cx="987.9999999999995" cy="520.9999999999987" r="127.69958668176469" fill="url(#_lgradient_3)"/><path d=" M 960.912 522.621 L 960.912 518.722 L 973.848 518.722 L 973.848 518.722 Q 983.757 518.722 983.757 526.382 L 983.757 526.382 L 983.757 526.382 Q 983.757 530.603 979.536 532.805 L 979.536 532.805 L 979.536 532.805 Q 982.243 533.493 983.78 535.328 L 983.78 535.328 L 983.78 535.328 Q 985.316 537.163 985.316 540.099 L 985.316 540.099 L 985.316 540.099 Q 985.316 544.548 982.312 546.888 L 982.312 546.888 L 982.312 546.888 Q 979.307 549.227 973.573 549.227 L 973.573 549.227 L 960.682 549.227 L 960.682 545.512 L 962.196 545.374 L 962.196 545.374 Q 963.526 545.236 963.526 544.089 L 963.526 544.089 L 963.526 522.758 L 960.912 522.621 Z  M 973.664 535.328 L 969.123 535.328 L 969.123 544.915 L 973.435 544.915 L 973.435 544.915 Q 979.399 544.915 979.399 540.053 L 979.399 540.053 L 979.399 540.053 Q 979.399 537.759 977.908 536.543 L 977.908 536.543 L 977.908 536.543 Q 976.417 535.328 973.664 535.328 L 973.664 535.328 Z  M 972.839 522.942 L 969.123 522.942 L 969.123 531.245 L 972.518 531.245 L 972.518 531.245 Q 975.362 531.245 976.715 530.075 L 976.715 530.075 L 976.715 530.075 Q 978.068 528.906 978.068 526.795 L 978.068 526.795 L 978.068 526.795 Q 978.068 524.685 976.715 523.814 L 976.715 523.814 L 976.715 523.814 Q 975.362 522.942 972.839 522.942 L 972.839 522.942 Z  M 995.959 524.089 L 995.959 524.089 L 995.959 539.319 L 995.959 539.319 Q 995.959 542.53 997.496 543.837 L 997.496 543.837 L 997.496 543.837 Q 999.032 545.145 1001.899 545.145 L 1001.899 545.145 L 1001.899 545.145 Q 1004.766 545.145 1006.349 543.723 L 1006.349 543.723 L 1006.349 543.723 Q 1007.932 542.3 1007.932 539.548 L 1007.932 539.548 L 1007.932 522.758 L 1005.271 522.621 L 1005.271 518.722 L 1016.143 518.722 L 1016.143 522.437 L 1014.629 522.575 L 1014.629 522.575 Q 1013.299 522.713 1013.299 523.951 L 1013.299 523.951 L 1013.299 540.328 L 1013.299 540.328 Q 1013.299 544.778 1010.179 547.301 L 1010.179 547.301 L 1010.179 547.301 Q 1007.06 549.824 1001.555 549.824 L 1001.555 549.824 L 1001.555 549.824 Q 996.051 549.824 993.229 547.369 L 993.229 547.369 L 993.229 547.369 Q 990.408 544.915 990.408 539.594 L 990.408 539.594 L 990.408 522.758 L 987.747 522.621 L 987.747 518.722 L 998.849 518.722 L 998.849 522.437 L 997.335 522.575 L 997.335 522.575 Q 996.601 522.667 996.28 522.965 L 996.28 522.965 L 996.28 522.965 Q 995.959 523.263 995.959 524.089 Z  M 1040.318 541.062 L 1040.318 549.227 L 1018.528 549.227 L 1018.528 545.512 L 1020.042 545.374 L 1020.042 545.374 Q 1021.373 545.236 1021.373 544.089 L 1021.373 544.089 L 1021.373 522.758 L 1018.758 522.621 L 1018.758 518.722 L 1039.768 518.722 L 1039.768 526.337 L 1035.089 526.658 L 1035.089 524.823 L 1035.089 524.823 Q 1035.089 524.043 1034.859 523.722 L 1034.859 523.722 L 1034.859 523.722 Q 1034.63 523.401 1033.758 523.401 L 1033.758 523.401 L 1026.969 523.401 L 1026.969 531.245 L 1037.566 531.245 L 1037.566 535.924 L 1026.969 535.924 L 1026.969 544.502 L 1034.355 544.502 L 1034.355 544.502 Q 1035.18 544.502 1035.41 544.158 L 1035.41 544.158 L 1035.41 544.158 Q 1035.639 543.814 1035.639 543.034 L 1035.639 543.034 L 1035.639 540.741 L 1040.318 541.062 Z  M 1055.043 549.227 L 1043.621 549.227 L 1043.621 545.512 L 1045.135 545.374 L 1045.135 545.374 Q 1046.465 545.236 1046.465 544.089 L 1046.465 544.089 L 1046.465 522.758 L 1043.85 522.621 L 1043.85 518.722 L 1056.374 518.722 L 1056.374 518.722 Q 1061.695 518.722 1064.539 520.694 L 1064.539 520.694 L 1064.539 520.694 Q 1067.383 522.667 1067.383 527.162 L 1067.383 527.162 L 1067.383 527.162 Q 1067.383 530.282 1065.755 532.3 L 1065.755 532.3 L 1065.755 532.3 Q 1064.126 534.318 1061.878 535.236 L 1061.878 535.236 L 1061.878 535.236 Q 1063.53 535.832 1064.493 538.034 L 1064.493 538.034 L 1067.796 545.236 L 1070.411 545.328 L 1070.411 549.227 L 1059.08 549.227 L 1059.08 545.512 L 1060.411 545.374 L 1060.411 545.374 Q 1061.466 545.236 1061.466 544.548 L 1061.466 544.548 L 1061.466 544.548 Q 1061.466 544.273 1061.282 543.906 L 1061.282 543.906 L 1059.126 539.319 L 1059.126 539.319 Q 1058.621 538.172 1058.002 537.69 L 1058.002 537.69 L 1058.002 537.69 Q 1057.383 537.209 1056.236 537.209 L 1056.236 537.209 L 1052.062 537.209 L 1052.062 545.19 L 1055.043 545.328 L 1055.043 549.227 Z  M 1052.062 523.171 L 1052.062 532.851 L 1056.053 532.851 L 1056.053 532.851 Q 1061.695 532.851 1061.695 527.805 L 1061.695 527.805 L 1061.695 527.805 Q 1061.695 524.915 1060.204 524.043 L 1060.204 524.043 L 1060.204 524.043 Q 1058.713 523.171 1055.41 523.171 L 1055.41 523.171 L 1052.062 523.171 Z  M 1094.219 541.062 L 1094.219 549.227 L 1072.429 549.227 L 1072.429 545.512 L 1073.943 545.374 L 1073.943 545.374 Q 1075.273 545.236 1075.273 544.089 L 1075.273 544.089 L 1075.273 522.758 L 1072.659 522.621 L 1072.659 518.722 L 1093.668 518.722 L 1093.668 526.337 L 1088.989 526.658 L 1088.989 524.823 L 1088.989 524.823 Q 1088.989 524.043 1088.76 523.722 L 1088.76 523.722 L 1088.76 523.722 Q 1088.531 523.401 1087.659 523.401 L 1087.659 523.401 L 1080.87 523.401 L 1080.87 531.245 L 1091.467 531.245 L 1091.467 535.924 L 1080.87 535.924 L 1080.87 544.502 L 1088.255 544.502 L 1088.255 544.502 Q 1089.081 544.502 1089.311 544.158 L 1089.311 544.158 L 1089.311 544.158 Q 1089.54 543.814 1089.54 543.034 L 1089.54 543.034 L 1089.54 540.741 L 1094.219 541.062 Z  M 1108.761 549.227 L 1097.522 549.227 L 1097.522 545.512 L 1099.173 545.374 L 1099.173 545.374 Q 1100.366 545.282 1100.366 544.089 L 1100.366 544.089 L 1100.366 522.758 L 1097.751 522.621 L 1097.751 518.722 L 1106.008 518.722 L 1118.99 539.777 L 1119.082 539.777 L 1119.082 522.758 L 1116.055 522.621 L 1116.055 518.722 L 1127.248 518.722 L 1127.248 522.437 L 1125.596 522.575 L 1125.596 522.575 Q 1124.495 522.667 1124.495 523.997 L 1124.495 523.997 L 1124.495 549.227 L 1119.128 549.227 L 1105.871 527.85 L 1105.779 527.85 L 1105.779 545.19 L 1108.761 545.328 L 1108.761 549.227 Z  M 857.743 524.181 L 857.743 524.181 L 863.89 542.667 L 864.12 542.667 L 870.542 522.804 L 867.744 522.621 L 867.744 518.722 L 878.295 518.722 L 878.295 522.437 L 876.781 522.575 L 876.781 522.575 Q 876.184 522.621 875.909 522.919 L 875.909 522.919 L 875.909 522.919 Q 875.634 523.217 875.359 523.951 L 875.359 523.951 L 866.689 549.227 L 860.725 549.227 L 851.367 522.758 L 848.752 522.621 L 848.752 518.722 L 860.588 518.722 L 860.588 522.437 L 859.074 522.575 L 859.074 522.575 Q 857.652 522.667 857.652 523.676 L 857.652 523.676 L 857.652 523.676 Q 857.652 523.905 857.743 524.181 Z  M 881.643 544.089 L 881.643 544.089 L 889.029 522.713 L 886.139 522.437 L 886.139 518.722 L 896.644 518.722 L 906.002 545.19 L 906.048 545.19 L 908.663 545.328 L 908.663 549.227 L 896.827 549.227 L 896.827 545.512 L 898.571 545.374 L 898.571 545.374 Q 899.35 545.282 899.626 545.007 L 899.626 545.007 L 899.626 545.007 Q 899.901 544.732 899.672 543.998 L 899.672 543.998 L 898.708 541.154 L 887.974 541.154 L 886.598 545.19 L 889.35 545.328 L 889.35 549.227 L 878.753 549.227 L 878.753 545.512 L 880.267 545.374 L 880.267 545.374 Q 881.231 545.282 881.643 544.089 Z  M 893.479 523.859 L 893.341 523.859 L 889.075 536.933 L 897.607 536.933 L 893.479 523.859 Z  M 921.599 549.227 L 910.36 549.227 L 910.36 545.512 L 912.011 545.374 L 912.011 545.374 Q 913.204 545.282 913.204 544.089 L 913.204 544.089 L 913.204 522.758 L 910.589 522.621 L 910.589 518.722 L 918.846 518.722 L 931.829 539.777 L 931.92 539.777 L 931.92 522.758 L 928.893 522.621 L 928.893 518.722 L 940.086 518.722 L 940.086 522.437 L 938.434 522.575 L 938.434 522.575 Q 937.333 522.667 937.333 523.997 L 937.333 523.997 L 937.333 549.227 L 931.966 549.227 L 918.709 527.85 L 918.617 527.85 L 918.617 545.19 L 921.599 545.328 L 921.599 549.227 Z " fill-rule="evenodd" fill="rgb(0,0,0)"/><path d=" M 1152.29 499.37 L 1154.29 499.37 L 1154.29 503.37 L 1152.29 503.37 L 823.71 503.37 L 821.71 503.37 L 821.71 499.37 L 823.71 499.37 L 1152.29 499.37 Z " fill="rgb(0,0,0)"/><path d=" M 851.6 566.11 C 852.14 566.74 852.71 567.34 853.31 567.92 C 853.85 568.45 854.45 568.93 855.1 569.33 C 855.79 569.75 856.55 570.07 857.33 570.28 C 858.39 570.55 859.49 570.68 860.58 570.67 C 861.67 570.68 862.77 570.55 863.83 570.28 C 864.61 570.07 865.37 569.75 866.06 569.33 C 866.71 568.93 867.31 568.45 867.85 567.92 C 868.45 567.34 869.02 566.74 869.56 566.11 C 870.18 565.41 870.82 564.73 871.49 564.07 C 872.24 563.33 873.08 562.68 873.97 562.12 C 875.01 561.49 876.13 561.01 877.3 560.7 C 878.69 560.34 880.13 560.17 881.56 560.18 C 882.99 560.17 884.43 560.34 885.82 560.7 C 886.99 561.01 888.11 561.49 889.15 562.12 C 890.04 562.68 890.88 563.33 891.63 564.07 C 892.3 564.73 892.94 565.41 893.56 566.11 C 894.1 566.74 894.67 567.34 895.27 567.92 C 895.81 568.45 896.41 568.93 897.06 569.33 C 897.75 569.75 898.51 570.07 899.29 570.28 C 900.35 570.55 901.45 570.68 902.54 570.67 C 903.63 570.68 904.73 570.55 905.79 570.28 C 906.57 570.07 907.33 569.75 908.02 569.33 C 908.67 568.93 909.27 568.45 909.81 567.92 C 910.41 567.34 910.98 566.74 911.52 566.11 C 912.14 565.41 912.78 564.73 913.45 564.07 C 914.2 563.33 915.04 562.68 915.93 562.12 C 916.97 561.49 918.09 561.01 919.26 560.7 C 920.65 560.34 922.08 560.17 923.52 560.18 C 924.95 560.17 926.38 560.34 927.77 560.7 C 928.95 561.01 930.07 561.49 931.1 562.12 C 932 562.68 932.84 563.33 933.59 564.07 C 934.26 564.73 934.9 565.41 935.51 566.11 C 936.06 566.74 936.63 567.34 937.22 567.92 C 937.77 568.45 938.37 568.93 939.01 569.33 C 939.71 569.75 940.46 570.07 941.25 570.28 C 942.31 570.55 943.4 570.68 944.5 570.67 C 945.59 570.68 946.68 570.55 947.74 570.28 C 948.53 570.07 949.29 569.75 949.98 569.33 C 950.63 568.93 951.23 568.45 951.77 567.92 C 952.37 567.34 952.94 566.74 953.48 566.11 C 954.1 565.41 954.74 564.73 955.41 564.07 C 956.16 563.33 957 562.68 957.89 562.12 C 958.93 561.49 960.05 561.01 961.22 560.7 C 962.61 560.34 964.04 560.17 965.48 560.18 C 966.91 560.17 968.34 560.34 969.73 560.7 C 970.91 561.01 972.03 561.49 973.06 562.12 C 973.96 562.68 974.79 563.33 975.55 564.07 C 976.22 564.73 976.86 565.41 977.47 566.11 C 978.02 566.74 978.59 567.34 979.18 567.92 C 979.73 568.45 980.33 568.93 980.97 569.33 C 981.67 569.75 982.42 570.07 983.21 570.28 C 984.27 570.55 985.36 570.68 986.46 570.67 C 987.55 570.68 988.64 570.55 989.7 570.28 C 990.49 570.07 991.24 569.75 991.94 569.33 C 992.59 568.93 993.19 568.45 993.73 567.92 C 994.32 567.34 994.89 566.74 995.44 566.11 C 996.06 565.41 996.7 564.73 997.36 564.07 C 998.12 563.33 998.95 562.68 999.85 562.12 C 1000.89 561.49 1002.01 561.01 1003.18 560.7 C 1004.57 560.34 1006 560.17 1007.44 560.18 C 1008.87 560.17 1010.3 560.34 1011.69 560.7 C 1012.86 561.01 1013.99 561.49 1015.02 562.12 C 1015.92 562.68 1016.75 563.33 1017.51 564.07 C 1018.18 564.73 1018.82 565.41 1019.43 566.11 C 1019.98 566.74 1020.55 567.34 1021.14 567.92 C 1021.69 568.45 1022.29 568.93 1022.93 569.33 C 1023.63 569.75 1024.38 570.07 1025.17 570.28 C 1026.23 570.55 1027.32 570.68 1028.42 570.67 C 1029.51 570.68 1030.6 570.55 1031.66 570.28 C 1032.45 570.07 1033.2 569.75 1033.9 569.33 C 1034.55 568.93 1035.15 568.45 1035.69 567.92 C 1036.28 567.34 1036.85 566.74 1037.4 566.11 C 1038.01 565.41 1038.66 564.73 1039.32 564.07 C 1040.08 563.33 1040.91 562.68 1041.81 562.12 C 1042.85 561.49 1043.97 561.01 1045.14 560.7 C 1046.53 560.34 1047.96 560.17 1049.4 560.18 C 1050.83 560.17 1052.26 560.34 1053.65 560.7 C 1054.82 561.01 1055.95 561.49 1056.98 562.12 C 1057.88 562.68 1058.71 563.33 1059.47 564.07 C 1060.14 564.73 1060.78 565.41 1061.39 566.11 C 1061.94 566.74 1062.51 567.34 1063.1 567.92 C 1063.65 568.45 1064.25 568.93 1064.89 569.33 C 1065.59 569.75 1066.34 570.07 1067.13 570.28 C 1068.19 570.55 1069.28 570.68 1070.38 570.67 C 1071.47 570.68 1072.56 570.55 1073.62 570.28 C 1074.41 570.07 1075.16 569.75 1075.86 569.33 C 1076.5 568.93 1077.1 568.45 1077.65 567.92 C 1078.24 567.34 1078.81 566.74 1079.36 566.11 C 1079.97 565.41 1080.62 564.73 1081.28 564.07 C 1082.04 563.33 1082.87 562.68 1083.77 562.12 C 1084.8 561.49 1085.93 561.01 1087.1 560.7 C 1088.49 560.34 1089.92 560.17 1091.35 560.18 C 1092.79 560.17 1094.22 560.34 1095.61 560.7 C 1096.78 561.01 1097.9 561.49 1098.94 562.12 C 1099.84 562.68 1100.67 563.33 1101.43 564.07 C 1102.09 564.73 1102.74 565.41 1103.35 566.11 C 1103.9 566.74 1104.47 567.34 1105.06 567.92 C 1105.6 568.45 1106.21 568.93 1106.85 569.33 C 1107.55 569.75 1108.3 570.07 1109.09 570.28 C 1110.15 570.55 1111.24 570.68 1112.33 570.67 C 1113.43 570.68 1114.52 570.55 1115.58 570.28 C 1116.37 570.07 1117.12 569.75 1117.82 569.33 C 1118.46 568.93 1119.06 568.45 1119.61 567.92 C 1120.2 567.34 1120.77 566.74 1121.32 566.11 C 1121.93 565.41 1122.57 564.73 1123.24 564.07 C 1124 563.33 1124.83 562.68 1125.73 562.12 C 1126.76 561.49 1127.89 561.01 1129.06 560.7 C 1130.46 560.34 1131.89 560.16 1133.34 560.18 L 1135.34 560.2 L 1135.29 564.2 L 1133.29 564.18 C 1132.2 564.17 1131.12 564.3 1130.07 564.57 C 1129.28 564.78 1128.53 565.1 1127.83 565.52 C 1127.18 565.93 1126.58 566.4 1126.04 566.93 C 1125.45 567.51 1124.88 568.12 1124.33 568.74 C 1123.71 569.45 1123.07 570.13 1122.41 570.78 C 1121.65 571.52 1120.82 572.17 1119.92 572.73 C 1118.88 573.37 1117.76 573.84 1116.59 574.16 C 1115.2 574.51 1113.77 574.68 1112.33 574.67 C 1110.9 574.68 1109.47 574.51 1108.08 574.16 C 1106.91 573.84 1105.78 573.37 1104.75 572.73 C 1103.85 572.17 1103.02 571.52 1102.26 570.78 C 1101.59 570.13 1100.95 569.45 1100.34 568.74 C 1099.79 568.12 1099.22 567.51 1098.63 566.93 C 1098.08 566.4 1097.48 565.93 1096.84 565.52 C 1096.14 565.1 1095.39 564.78 1094.6 564.57 C 1093.54 564.3 1092.45 564.17 1091.35 564.18 C 1090.26 564.17 1089.17 564.3 1088.11 564.57 C 1087.32 564.78 1086.57 565.1 1085.87 565.52 C 1085.23 565.93 1084.63 566.4 1084.08 566.93 C 1083.49 567.51 1082.92 568.12 1082.37 568.74 C 1081.76 569.45 1081.11 570.13 1080.45 570.78 C 1079.69 571.52 1078.86 572.17 1077.96 572.73 C 1076.93 573.37 1075.8 573.84 1074.63 574.16 C 1073.24 574.51 1071.81 574.68 1070.38 574.67 C 1068.94 574.68 1067.51 574.51 1066.12 574.16 C 1064.95 573.84 1063.83 573.37 1062.79 572.73 C 1061.89 572.17 1061.06 571.52 1060.3 570.78 C 1059.64 570.13 1058.99 569.45 1058.38 568.74 C 1057.83 568.12 1057.26 567.51 1056.67 566.93 C 1056.12 566.4 1055.52 565.93 1054.88 565.52 C 1054.18 565.1 1053.43 564.78 1052.64 564.57 C 1051.58 564.3 1050.49 564.17 1049.4 564.18 C 1048.3 564.17 1047.21 564.3 1046.15 564.57 C 1045.36 564.78 1044.61 565.1 1043.91 565.52 C 1043.27 565.93 1042.67 566.4 1042.12 566.93 C 1041.53 567.51 1040.96 568.12 1040.41 568.74 C 1039.8 569.45 1039.16 570.13 1038.49 570.78 C 1037.73 571.52 1036.9 572.17 1036 572.73 C 1034.97 573.37 1033.84 573.84 1032.67 574.16 C 1031.28 574.51 1029.85 574.68 1028.42 574.67 C 1026.98 574.68 1025.55 574.51 1024.16 574.16 C 1022.99 573.84 1021.87 573.37 1020.83 572.73 C 1019.93 572.17 1019.1 571.52 1018.34 570.78 C 1017.68 570.13 1017.04 569.45 1016.42 568.74 C 1015.87 568.12 1015.3 567.51 1014.71 566.93 C 1014.17 566.4 1013.57 565.93 1012.92 565.52 C 1012.22 565.1 1011.47 564.78 1010.68 564.57 C 1009.62 564.3 1008.53 564.17 1007.44 564.18 C 1006.34 564.17 1005.25 564.3 1004.19 564.57 C 1003.4 564.78 1002.65 565.1 1001.95 565.52 C 1001.31 565.93 1000.71 566.4 1000.16 566.93 C 999.57 567.51 999 568.12 998.45 568.74 C 997.84 569.45 997.2 570.13 996.53 570.78 C 995.77 571.52 994.94 572.17 994.04 572.73 C 993.01 573.37 991.89 573.84 990.71 574.16 C 989.32 574.51 987.89 574.68 986.46 574.67 C 985.02 574.68 983.59 574.51 982.2 574.16 C 981.03 573.84 979.91 573.37 978.87 572.73 C 977.98 572.17 977.14 571.52 976.38 570.78 C 975.72 570.13 975.08 569.45 974.46 568.74 C 973.91 568.12 973.34 567.51 972.75 566.93 C 972.21 566.4 971.61 565.93 970.96 565.52 C 970.27 565.1 969.51 564.78 968.72 564.57 C 967.66 564.3 966.57 564.17 965.48 564.18 C 964.38 564.17 963.29 564.3 962.23 564.57 C 961.44 564.78 960.69 565.1 959.99 565.52 C 959.35 565.93 958.75 566.4 958.2 566.93 C 957.61 567.51 957.04 568.12 956.49 568.74 C 955.88 569.45 955.24 570.13 954.57 570.78 C 953.81 571.52 952.98 572.17 952.08 572.73 C 951.05 573.37 949.93 573.84 948.75 574.16 C 947.36 574.51 945.93 574.68 944.5 574.67 C 943.06 574.68 941.63 574.51 940.24 574.16 C 939.07 573.84 937.95 573.37 936.91 572.73 C 936.02 572.17 935.18 571.52 934.43 570.78 C 933.76 570.13 933.12 569.45 932.5 568.74 C 931.96 568.12 931.39 567.51 930.79 566.93 C 930.25 566.4 929.65 565.93 929 565.52 C 928.31 565.1 927.55 564.78 926.77 564.57 C 925.7 564.3 924.61 564.17 923.52 564.18 C 922.42 564.17 921.33 564.3 920.27 564.57 C 919.48 564.78 918.73 565.1 918.03 565.52 C 917.39 565.93 916.79 566.4 916.24 566.93 C 915.65 567.51 915.08 568.12 914.54 568.74 C 913.92 569.45 913.28 570.13 912.61 570.78 C 911.86 571.52 911.02 572.17 910.12 572.73 C 909.09 573.37 907.97 573.84 906.79 574.16 C 905.4 574.51 903.97 574.68 902.54 574.67 C 901.1 574.68 899.67 574.51 898.28 574.16 C 897.11 573.84 895.99 573.37 894.95 572.73 C 894.06 572.17 893.22 571.52 892.47 570.78 C 891.8 570.13 891.16 569.45 890.54 568.74 C 890 568.12 889.43 567.51 888.83 566.93 C 888.29 566.4 887.69 565.93 887.04 565.52 C 886.35 565.1 885.59 564.78 884.81 564.57 C 883.75 564.3 882.65 564.17 881.56 564.18 C 880.47 564.17 879.37 564.3 878.31 564.57 C 877.53 564.78 876.77 565.1 876.08 565.52 C 875.43 565.93 874.83 566.4 874.29 566.93 C 873.69 567.51 873.12 568.12 872.58 568.74 C 871.96 569.45 871.32 570.13 870.65 570.78 C 869.9 571.52 869.06 572.17 868.17 572.73 C 867.13 573.37 866.01 573.84 864.84 574.16 C 863.45 574.51 862.02 574.68 860.58 574.67 C 859.15 574.68 857.72 574.51 856.33 574.16 C 855.15 573.84 854.03 573.37 853 572.73 C 852.1 572.17 851.26 571.52 850.51 570.78 C 849.84 570.13 849.2 569.45 848.58 568.74 C 848.04 568.12 847.47 567.51 846.88 566.93 C 846.33 566.4 845.73 565.93 845.09 565.52 C 844.39 565.1 843.64 564.78 842.85 564.57 C 841.79 564.3 840.71 564.17 839.62 564.18 L 837.62 564.2 L 837.58 560.2 L 839.58 560.18 C 841.02 560.16 842.46 560.34 843.86 560.7 C 845.03 561.01 846.15 561.49 847.19 562.12 C 848.08 562.68 848.92 563.33 849.67 564.07 C 850.34 564.73 850.98 565.41 851.6 566.11 Z " fill="rgb(0,0,0)"/><path d=" M 877.711 483.813 L 877.711 483.813 L 877.711 474.18 L 875.012 474.18 L 875.012 471.545 L 877.711 471.545 L 877.711 470.352 L 877.711 470.352 Q 877.711 467.278 879.122 465.928 L 879.122 465.928 L 879.122 465.928 Q 880.44 464.642 882.982 464.642 L 882.982 464.642 L 882.982 464.642 Q 885.523 464.642 887.5 465.74 L 887.5 465.74 L 886.59 468.25 L 886.59 468.25 Q 885.084 467.466 883.766 467.466 L 883.766 467.466 L 883.766 467.466 Q 882.448 467.466 881.946 468.109 L 881.946 468.109 L 881.946 468.109 Q 881.444 468.752 881.444 470.07 L 881.444 470.07 L 881.444 471.545 L 886.088 471.545 L 886.088 474.18 L 881.444 474.18 L 881.444 484.691 L 884.08 484.817 L 884.08 487.327 L 875.765 487.327 L 875.765 484.942 L 876.801 484.848 L 876.801 484.848 Q 877.271 484.785 877.491 484.581 L 877.491 484.581 L 877.491 484.581 Q 877.711 484.377 877.711 483.813 Z  M 901.431 472.172 L 901.431 472.172 L 901.431 483.844 L 901.431 483.844 Q 901.431 484.346 901.603 484.534 L 901.603 484.534 L 901.603 484.534 Q 901.776 484.723 902.215 484.754 L 902.215 484.754 L 903.219 484.817 L 903.219 487.327 L 898.23 487.327 L 898.23 485.507 L 898.136 485.476 L 898.136 485.476 Q 896.567 487.735 893.838 487.735 L 893.838 487.735 L 893.838 487.735 Q 890.637 487.735 889.1 485.695 L 889.1 485.695 L 889.1 485.695 Q 887.563 483.656 887.563 480.11 L 887.563 480.11 L 887.563 480.11 Q 887.563 475.843 889.633 473.459 L 889.633 473.459 L 889.633 473.459 Q 891.704 471.074 895.846 471.074 L 895.846 471.074 L 895.846 471.074 Q 898.513 471.074 901.431 472.172 Z  M 897.791 482.338 L 897.791 482.338 L 897.791 474.212 L 897.791 474.212 Q 896.913 473.804 895.375 473.804 L 895.375 473.804 L 895.375 473.804 Q 893.273 473.804 892.332 475.498 L 892.332 475.498 L 892.332 475.498 Q 891.39 477.192 891.39 479.985 L 891.39 479.985 L 891.39 479.985 Q 891.39 485.068 894.653 485.068 L 894.653 485.068 L 894.653 485.068 Q 896.034 485.068 896.913 484.236 L 896.913 484.236 L 896.913 484.236 Q 897.791 483.405 897.791 482.338 Z  M 906.263 474.18 L 904.945 474.086 L 904.945 471.545 L 910.247 471.545 L 910.247 473.584 L 910.247 473.584 Q 912.004 471.074 915.063 471.074 L 915.063 471.074 L 915.063 471.074 Q 918.123 471.074 919.189 473.584 L 919.189 473.584 L 919.189 473.584 Q 920.946 471.074 923.958 471.074 L 923.958 471.074 L 923.958 471.074 Q 926.218 471.074 927.441 472.439 L 927.441 472.439 L 927.441 472.439 Q 928.665 473.804 928.665 476.533 L 928.665 476.533 L 928.665 484.723 L 930.453 484.817 L 930.453 487.327 L 922.986 487.327 L 922.986 484.942 L 924.021 484.848 L 924.021 484.848 Q 924.492 484.785 924.696 484.581 L 924.696 484.581 L 924.696 484.581 Q 924.9 484.377 924.931 483.844 L 924.931 483.844 L 924.931 477.349 L 924.931 477.349 Q 924.931 475.624 924.539 474.792 L 924.539 474.792 L 924.539 474.792 Q 924.147 473.961 922.703 473.961 L 922.703 473.961 L 922.703 473.961 Q 921.26 473.961 920.491 474.839 L 920.491 474.839 L 920.491 474.839 Q 919.723 475.718 919.723 477.192 L 919.723 477.192 L 919.723 484.723 L 921.448 484.817 L 921.448 487.327 L 914.044 487.327 L 914.044 484.942 L 915.079 484.848 L 915.079 484.848 Q 915.55 484.785 915.769 484.581 L 915.769 484.581 L 915.769 484.581 Q 915.989 484.377 915.989 483.813 L 915.989 483.813 L 915.989 477.349 L 915.989 477.349 Q 915.989 475.624 915.597 474.792 L 915.597 474.792 L 915.597 474.792 Q 915.205 473.961 913.746 473.961 L 913.746 473.961 L 913.746 473.961 Q 912.287 473.961 911.534 474.871 L 911.534 474.871 L 911.534 474.871 Q 910.781 475.78 910.781 477.13 L 910.781 477.13 L 910.781 484.723 L 912.475 484.817 L 912.475 487.327 L 905.07 487.327 L 905.07 484.942 L 906.106 484.848 L 906.106 484.848 Q 906.576 484.785 906.796 484.581 L 906.796 484.581 L 906.796 484.581 Q 907.016 484.377 907.016 483.813 L 907.016 483.813 L 907.047 483.813 L 907.047 475.153 L 907.047 475.153 Q 907.047 474.62 906.874 474.416 L 906.874 474.416 L 906.874 474.416 Q 906.702 474.212 906.263 474.18 L 906.263 474.18 Z  M 932.367 471.545 L 937.983 471.545 L 937.983 484.723 L 939.772 484.817 L 939.772 487.327 L 932.304 487.327 L 932.304 484.942 L 933.34 484.848 L 933.34 484.848 Q 934.25 484.754 934.25 483.844 L 934.25 483.844 L 934.25 475.122 L 934.25 475.122 Q 934.25 474.588 934.077 474.4 L 934.077 474.4 L 934.077 474.4 Q 933.905 474.212 933.465 474.212 L 933.465 474.212 L 932.367 474.149 L 932.367 471.545 Z  M 934.03 468.831 L 934.03 468.831 L 934.03 468.831 Q 933.371 468.188 933.371 467.184 L 933.371 467.184 L 933.371 467.184 Q 933.371 466.179 934.03 465.505 L 934.03 465.505 L 934.03 465.505 Q 934.689 464.83 935.756 464.83 L 935.756 464.83 L 935.756 464.83 Q 936.823 464.83 937.497 465.505 L 937.497 465.505 L 937.497 465.505 Q 938.172 466.179 938.172 467.184 L 938.172 467.184 L 938.172 467.184 Q 938.172 468.188 937.497 468.831 L 937.497 468.831 L 937.497 468.831 Q 936.823 469.474 935.756 469.474 L 935.756 469.474 L 935.756 469.474 Q 934.689 469.474 934.03 468.831 Z  M 941.592 464.956 L 947.208 464.956 L 947.208 484.723 L 948.996 484.817 L 948.996 487.327 L 941.529 487.327 L 941.529 484.942 L 942.564 484.848 L 942.564 484.848 Q 943.474 484.754 943.474 483.844 L 943.474 483.844 L 943.474 468.376 L 943.474 468.376 Q 943.474 467.686 942.69 467.623 L 942.69 467.623 L 941.592 467.56 L 941.592 464.956 Z  M 951.004 471.545 L 956.621 471.545 L 956.621 484.723 L 958.409 484.817 L 958.409 487.327 L 950.942 487.327 L 950.942 484.942 L 951.977 484.848 L 951.977 484.848 Q 952.887 484.754 952.887 483.844 L 952.887 483.844 L 952.887 475.122 L 952.887 475.122 Q 952.887 474.588 952.714 474.4 L 952.714 474.4 L 952.714 474.4 Q 952.542 474.212 952.103 474.212 L 952.103 474.212 L 951.004 474.149 L 951.004 471.545 Z  M 952.667 468.831 L 952.667 468.831 L 952.667 468.831 Q 952.008 468.188 952.008 467.184 L 952.008 467.184 L 952.008 467.184 Q 952.008 466.179 952.667 465.505 L 952.667 465.505 L 952.667 465.505 Q 953.326 464.83 954.393 464.83 L 954.393 464.83 L 954.393 464.83 Q 955.46 464.83 956.134 465.505 L 956.134 465.505 L 956.134 465.505 Q 956.809 466.179 956.809 467.184 L 956.809 467.184 L 956.809 467.184 Q 956.809 468.188 956.134 468.831 L 956.134 468.831 L 956.134 468.831 Q 955.46 469.474 954.393 469.474 L 954.393 469.474 L 954.393 469.474 Q 953.326 469.474 952.667 468.831 Z  M 968.104 471.074 L 968.104 471.074 L 968.104 471.074 Q 970.457 471.074 971.838 472.219 L 971.838 472.219 L 971.838 472.219 Q 973.219 473.365 973.219 475.435 L 973.219 475.435 L 973.219 475.435 Q 973.219 476.816 972.622 477.867 L 972.622 477.867 L 972.622 477.867 Q 972.026 478.918 971.148 479.514 L 971.148 479.514 L 971.148 479.514 Q 970.269 480.11 969.014 480.487 L 969.014 480.487 L 969.014 480.487 Q 966.912 481.114 964.276 481.114 L 964.276 481.114 L 964.276 481.114 Q 964.371 482.777 965.312 483.797 L 965.312 483.797 L 965.312 483.797 Q 966.253 484.817 968.198 484.817 L 968.198 484.817 L 968.198 484.817 Q 970.144 484.817 972.089 483.436 L 972.089 483.436 L 973.281 485.978 L 973.281 485.978 Q 972.654 486.542 971.163 487.139 L 971.163 487.139 L 971.163 487.139 Q 969.673 487.735 967.759 487.735 L 967.759 487.735 L 967.759 487.735 Q 963.931 487.735 962.143 485.617 L 962.143 485.617 L 962.143 485.617 Q 960.354 483.499 960.354 479.797 L 960.354 479.797 L 960.354 479.797 Q 960.354 476.094 962.394 473.584 L 962.394 473.584 L 962.394 473.584 Q 964.433 471.074 968.104 471.074 Z  M 966.677 478.243 L 966.677 478.243 L 966.677 478.243 Q 967.822 478.04 968.794 477.334 L 968.794 477.334 L 968.794 477.334 Q 969.767 476.628 969.767 475.655 L 969.767 475.655 L 969.767 475.655 Q 969.767 473.741 967.885 473.741 L 967.885 473.741 L 967.885 473.741 Q 966.128 473.741 965.186 475.137 L 965.186 475.137 L 965.186 475.137 Q 964.245 476.533 964.151 478.479 L 964.151 478.479 L 964.151 478.479 Q 965.531 478.447 966.677 478.243 Z  M 982.349 483.781 L 985.8 472.172 L 988.844 472.172 L 992.107 483.844 L 992.169 483.844 L 994.303 474.149 L 992.703 474.055 L 992.703 471.545 L 999.009 471.545 L 999.009 473.961 L 997.974 474.023 L 997.974 474.023 Q 997.346 474.086 997.127 474.776 L 997.127 474.776 L 994.146 487.327 L 989.628 487.327 L 987.055 477.977 L 986.961 477.977 L 984.294 487.327 L 979.682 487.327 L 976.513 474.808 L 976.513 474.808 Q 976.356 474.369 976.184 474.212 L 976.184 474.212 L 976.184 474.212 Q 976.011 474.055 975.603 474.023 L 975.603 474.023 L 974.693 473.961 L 974.693 471.545 L 981.878 471.545 L 981.878 474.055 L 980.121 474.149 L 982.286 483.781 L 982.349 483.781 Z  M 1008.234 471.074 L 1008.234 471.074 L 1008.234 471.074 Q 1010.587 471.074 1011.968 472.219 L 1011.968 472.219 L 1011.968 472.219 Q 1013.348 473.365 1013.348 475.435 L 1013.348 475.435 L 1013.348 475.435 Q 1013.348 476.816 1012.752 477.867 L 1012.752 477.867 L 1012.752 477.867 Q 1012.156 478.918 1011.277 479.514 L 1011.277 479.514 L 1011.277 479.514 Q 1010.399 480.11 1009.144 480.487 L 1009.144 480.487 L 1009.144 480.487 Q 1007.042 481.114 1004.406 481.114 L 1004.406 481.114 L 1004.406 481.114 Q 1004.5 482.777 1005.441 483.797 L 1005.441 483.797 L 1005.441 483.797 Q 1006.383 484.817 1008.328 484.817 L 1008.328 484.817 L 1008.328 484.817 Q 1010.273 484.817 1012.219 483.436 L 1012.219 483.436 L 1013.411 485.978 L 1013.411 485.978 Q 1012.783 486.542 1011.293 487.139 L 1011.293 487.139 L 1011.293 487.139 Q 1009.803 487.735 1007.889 487.735 L 1007.889 487.735 L 1007.889 487.735 Q 1004.061 487.735 1002.273 485.617 L 1002.273 485.617 L 1002.273 485.617 Q 1000.484 483.499 1000.484 479.797 L 1000.484 479.797 L 1000.484 479.797 Q 1000.484 476.094 1002.523 473.584 L 1002.523 473.584 L 1002.523 473.584 Q 1004.563 471.074 1008.234 471.074 Z  M 1006.806 478.243 L 1006.806 478.243 L 1006.806 478.243 Q 1007.952 478.04 1008.924 477.334 L 1008.924 477.334 L 1008.924 477.334 Q 1009.897 476.628 1009.897 475.655 L 1009.897 475.655 L 1009.897 475.655 Q 1009.897 473.741 1008.014 473.741 L 1008.014 473.741 L 1008.014 473.741 Q 1006.257 473.741 1005.316 475.137 L 1005.316 475.137 L 1005.316 475.137 Q 1004.375 476.533 1004.281 478.479 L 1004.281 478.479 L 1004.281 478.479 Q 1005.661 478.447 1006.806 478.243 Z  M 1023.42 471.074 L 1023.42 471.074 L 1023.42 471.074 Q 1025.773 471.074 1027.154 472.219 L 1027.154 472.219 L 1027.154 472.219 Q 1028.534 473.365 1028.534 475.435 L 1028.534 475.435 L 1028.534 475.435 Q 1028.534 476.816 1027.938 477.867 L 1027.938 477.867 L 1027.938 477.867 Q 1027.342 478.918 1026.463 479.514 L 1026.463 479.514 L 1026.463 479.514 Q 1025.585 480.11 1024.33 480.487 L 1024.33 480.487 L 1024.33 480.487 Q 1022.228 481.114 1019.592 481.114 L 1019.592 481.114 L 1019.592 481.114 Q 1019.686 482.777 1020.627 483.797 L 1020.627 483.797 L 1020.627 483.797 Q 1021.569 484.817 1023.514 484.817 L 1023.514 484.817 L 1023.514 484.817 Q 1025.459 484.817 1027.405 483.436 L 1027.405 483.436 L 1028.597 485.978 L 1028.597 485.978 Q 1027.969 486.542 1026.479 487.139 L 1026.479 487.139 L 1026.479 487.139 Q 1024.989 487.735 1023.075 487.735 L 1023.075 487.735 L 1023.075 487.735 Q 1019.247 487.735 1017.458 485.617 L 1017.458 485.617 L 1017.458 485.617 Q 1015.67 483.499 1015.67 479.797 L 1015.67 479.797 L 1015.67 479.797 Q 1015.67 476.094 1017.709 473.584 L 1017.709 473.584 L 1017.709 473.584 Q 1019.749 471.074 1023.42 471.074 Z  M 1021.992 478.243 L 1021.992 478.243 L 1021.992 478.243 Q 1023.137 478.04 1024.11 477.334 L 1024.11 477.334 L 1024.11 477.334 Q 1025.083 476.628 1025.083 475.655 L 1025.083 475.655 L 1025.083 475.655 Q 1025.083 473.741 1023.2 473.741 L 1023.2 473.741 L 1023.2 473.741 Q 1021.443 473.741 1020.502 475.137 L 1020.502 475.137 L 1020.502 475.137 Q 1019.561 476.533 1019.466 478.479 L 1019.466 478.479 L 1019.466 478.479 Q 1020.847 478.447 1021.992 478.243 Z  M 1032.676 483.813 L 1032.676 483.813 L 1032.676 468.533 L 1032.676 468.533 Q 1032.676 468.031 1032.503 467.842 L 1032.503 467.842 L 1032.503 467.842 Q 1032.331 467.654 1031.891 467.623 L 1031.891 467.623 L 1030.793 467.56 L 1030.793 464.956 L 1036.378 464.956 L 1036.378 478.542 L 1036.378 478.542 Q 1038.104 478.385 1039.39 477.475 L 1039.39 477.475 L 1039.39 477.475 Q 1040.677 476.565 1041.147 475.09 L 1041.147 475.09 L 1041.147 475.09 Q 1041.241 474.776 1041.241 474.588 L 1041.241 474.588 L 1041.241 474.588 Q 1041.241 474.055 1040.645 474.055 L 1040.645 474.055 L 1039.453 473.992 L 1039.453 471.545 L 1045.948 471.545 L 1045.948 474.086 L 1044.442 474.149 L 1044.442 474.149 Q 1044.034 477.349 1041.681 479.2 L 1041.681 479.2 L 1044.755 484.723 L 1046.669 484.817 L 1046.669 487.327 L 1042.088 487.327 L 1038.512 480.801 L 1038.512 480.801 Q 1037.476 481.083 1036.378 481.24 L 1036.378 481.24 L 1036.378 484.723 L 1036.409 484.723 L 1038.198 484.817 L 1038.198 487.327 L 1030.73 487.327 L 1030.73 484.942 L 1031.766 484.848 L 1031.766 484.848 Q 1032.236 484.785 1032.456 484.581 L 1032.456 484.581 L 1032.456 484.581 Q 1032.676 484.377 1032.676 483.813 Z  M 1056.051 471.074 L 1056.051 471.074 L 1056.051 471.074 Q 1058.404 471.074 1059.784 472.219 L 1059.784 472.219 L 1059.784 472.219 Q 1061.165 473.365 1061.165 475.435 L 1061.165 475.435 L 1061.165 475.435 Q 1061.165 476.816 1060.569 477.867 L 1060.569 477.867 L 1060.569 477.867 Q 1059.973 478.918 1059.094 479.514 L 1059.094 479.514 L 1059.094 479.514 Q 1058.216 480.11 1056.961 480.487 L 1056.961 480.487 L 1056.961 480.487 Q 1054.858 481.114 1052.223 481.114 L 1052.223 481.114 L 1052.223 481.114 Q 1052.317 482.777 1053.258 483.797 L 1053.258 483.797 L 1053.258 483.797 Q 1054.199 484.817 1056.145 484.817 L 1056.145 484.817 L 1056.145 484.817 Q 1058.09 484.817 1060.035 483.436 L 1060.035 483.436 L 1061.228 485.978 L 1061.228 485.978 Q 1060.6 486.542 1059.11 487.139 L 1059.11 487.139 L 1059.11 487.139 Q 1057.62 487.735 1055.706 487.735 L 1055.706 487.735 L 1055.706 487.735 Q 1051.878 487.735 1050.089 485.617 L 1050.089 485.617 L 1050.089 485.617 Q 1048.301 483.499 1048.301 479.797 L 1048.301 479.797 L 1048.301 479.797 Q 1048.301 476.094 1050.34 473.584 L 1050.34 473.584 L 1050.34 473.584 Q 1052.38 471.074 1056.051 471.074 Z  M 1054.623 478.243 L 1054.623 478.243 L 1054.623 478.243 Q 1055.768 478.04 1056.741 477.334 L 1056.741 477.334 L 1056.741 477.334 Q 1057.714 476.628 1057.714 475.655 L 1057.714 475.655 L 1057.714 475.655 Q 1057.714 473.741 1055.831 473.741 L 1055.831 473.741 L 1055.831 473.741 Q 1054.074 473.741 1053.133 475.137 L 1053.133 475.137 L 1053.133 475.137 Q 1052.191 476.533 1052.097 478.479 L 1052.097 478.479 L 1052.097 478.479 Q 1053.478 478.447 1054.623 478.243 Z  M 1064.491 474.149 L 1063.173 474.055 L 1063.173 471.545 L 1068.475 471.545 L 1068.475 473.584 L 1068.475 473.584 Q 1069.291 472.423 1070.64 471.749 L 1070.64 471.749 L 1070.64 471.749 Q 1071.99 471.074 1073.558 471.074 L 1073.558 471.074 L 1073.558 471.074 Q 1075.943 471.074 1077.245 472.439 L 1077.245 472.439 L 1077.245 472.439 Q 1078.547 473.804 1078.547 476.533 L 1078.547 476.533 L 1078.547 484.723 L 1080.336 484.817 L 1080.336 487.327 L 1072.868 487.327 L 1072.868 484.942 L 1073.904 484.848 L 1073.904 484.848 Q 1074.374 484.785 1074.594 484.581 L 1074.594 484.581 L 1074.594 484.581 Q 1074.813 484.377 1074.813 483.813 L 1074.813 483.813 L 1074.813 477.349 L 1074.813 477.349 Q 1074.813 475.624 1074.28 474.792 L 1074.28 474.792 L 1074.28 474.792 Q 1073.747 473.961 1072.256 473.961 L 1072.256 473.961 L 1072.256 473.961 Q 1070.766 473.961 1069.887 474.902 L 1069.887 474.902 L 1069.887 474.902 Q 1069.009 475.843 1069.009 477.13 L 1069.009 477.13 L 1069.009 484.723 L 1070.797 484.817 L 1070.797 487.327 L 1063.33 487.327 L 1063.33 484.942 L 1064.365 484.848 L 1064.365 484.848 Q 1064.836 484.785 1065.056 484.581 L 1065.056 484.581 L 1065.056 484.581 Q 1065.275 484.377 1065.275 483.813 L 1065.275 483.813 L 1065.275 475.122 L 1065.275 475.122 Q 1065.275 474.18 1064.491 474.149 L 1064.491 474.149 Z  M 1090.062 471.074 L 1090.062 471.074 L 1090.062 471.074 Q 1091.411 471.074 1092.635 471.451 L 1092.635 471.451 L 1092.635 468.282 L 1092.635 468.282 Q 1092.635 467.591 1091.819 467.529 L 1091.819 467.529 L 1090.47 467.435 L 1090.47 464.956 L 1096.306 464.956 L 1096.306 484.032 L 1096.306 484.032 Q 1096.337 484.754 1097.09 484.754 L 1097.09 484.754 L 1098.188 484.817 L 1098.188 487.327 L 1093.105 487.327 L 1093.105 485.476 L 1093.011 485.444 L 1093.011 485.444 Q 1091.599 487.735 1088.744 487.735 L 1088.744 487.735 L 1088.744 487.735 Q 1085.167 487.735 1083.724 485.35 L 1083.724 485.35 L 1083.724 485.35 Q 1082.406 483.185 1082.406 480.048 L 1082.406 480.048 L 1082.406 480.048 Q 1082.406 475.969 1084.43 473.521 L 1084.43 473.521 L 1084.43 473.521 Q 1086.454 471.074 1090.062 471.074 Z  M 1092.635 482.432 L 1092.635 482.432 L 1092.635 474.306 L 1092.635 474.306 Q 1091.505 473.804 1090.25 473.804 L 1090.25 473.804 L 1090.25 473.804 Q 1088.18 473.804 1087.223 475.467 L 1087.223 475.467 L 1087.223 475.467 Q 1086.266 477.13 1086.266 479.702 L 1086.266 479.702 L 1086.266 479.702 Q 1086.266 484.974 1089.654 484.974 L 1089.654 484.974 L 1089.654 484.974 Q 1090.941 484.974 1091.788 484.236 L 1091.788 484.236 L 1091.788 484.236 Q 1092.635 483.499 1092.635 482.432 Z " fill-rule="evenodd" fill="rgb(0,0,0)"/><path d=" M 957.478 622.187 L 936.613 622.187 L 936.613 618.16 L 947.02 605.035 L 947.02 605.035 Q 948.641 602.943 949.164 602.237 L 949.164 602.237 L 949.164 602.237 Q 949.687 601.531 950.183 600.25 L 950.183 600.25 L 950.183 600.25 Q 950.68 598.969 950.68 597.165 L 950.68 597.165 L 950.68 597.165 Q 950.68 595.361 949.451 594.21 L 949.451 594.21 L 949.451 594.21 Q 948.222 593.06 946.314 593.06 L 946.314 593.06 L 946.314 593.06 Q 944.405 593.06 943.438 593.374 L 943.438 593.374 L 943.438 593.374 Q 942.47 593.687 942.287 594.08 L 942.287 594.08 L 942.287 594.08 Q 942.104 594.472 942.104 595.308 L 942.104 595.308 L 942.104 599.021 L 936.77 598.655 L 936.77 590.288 L 936.77 590.288 Q 941.686 587.831 946.863 587.831 L 946.863 587.831 L 946.863 587.831 Q 952.04 587.831 954.654 590.367 L 954.654 590.367 L 954.654 590.367 Q 957.269 592.903 957.269 597.296 L 957.269 597.296 L 957.269 597.296 Q 957.269 601.688 952.824 607.074 L 952.824 607.074 L 944.405 617.01 L 957.478 617.01 L 957.478 622.187 Z  M 974.578 587.831 L 974.578 587.831 L 974.578 587.831 Q 986.449 587.831 986.449 605.035 L 986.449 605.035 L 986.449 605.035 Q 986.449 614.186 983.363 618.448 L 983.363 618.448 L 983.363 618.448 Q 980.278 622.71 974.212 622.71 L 974.212 622.71 L 974.212 622.71 Q 968.146 622.71 965.165 618.5 L 965.165 618.5 L 965.165 618.5 Q 962.185 614.291 962.185 605.401 L 962.185 605.401 L 962.185 605.401 Q 962.185 596.511 965.479 592.171 L 965.479 592.171 L 965.479 592.171 Q 968.774 587.831 974.578 587.831 Z  M 970.003 614.997 L 970.003 614.997 L 970.003 614.997 Q 971.493 617.69 974.317 617.69 L 974.317 617.69 L 974.317 617.69 Q 977.141 617.69 978.683 614.918 L 978.683 614.918 L 978.683 614.918 Q 980.226 612.147 980.226 605.27 L 980.226 605.27 L 980.226 605.27 Q 980.226 598.394 978.735 595.674 L 978.735 595.674 L 978.735 595.674 Q 977.245 592.955 974.369 592.955 L 974.369 592.955 L 974.369 592.955 Q 971.493 592.955 970.003 595.857 L 970.003 595.857 L 970.003 595.857 Q 968.512 598.76 968.512 605.532 L 968.512 605.532 L 968.512 605.532 Q 968.512 612.304 970.003 614.997 Z  M 999.051 615.86 L 999.051 615.86 L 999.051 595.308 L 992.933 598.446 L 990.632 594.419 L 1000.149 588.51 L 1005.274 588.51 L 1005.274 617.481 L 1010.713 617.742 L 1010.713 622.187 L 992.515 622.187 L 992.515 617.899 L 997.535 617.585 L 997.535 617.585 Q 998.319 617.533 998.685 617.167 L 998.685 617.167 L 998.685 617.167 Q 999.051 616.801 999.051 615.86 Z  M 1019.341 622.815 L 1019.341 622.815 L 1018.086 617.951 L 1018.086 617.951 Q 1024.1 617.271 1027.237 614.761 L 1027.237 614.761 L 1027.237 614.761 Q 1030.375 612.251 1030.95 607.859 L 1030.95 607.859 L 1030.95 607.859 Q 1027.917 609.846 1023.681 609.846 L 1023.681 609.846 L 1023.681 609.846 Q 1019.446 609.846 1017.066 607.127 L 1017.066 607.127 L 1017.066 607.127 Q 1014.687 604.407 1014.687 599.44 L 1014.687 599.44 L 1014.687 599.44 Q 1014.687 594.472 1017.668 591.151 L 1017.668 591.151 L 1017.668 591.151 Q 1020.648 587.831 1026.348 587.831 L 1026.348 587.831 L 1026.348 587.831 Q 1032.048 587.831 1034.715 591.909 L 1034.715 591.909 L 1034.715 591.909 Q 1037.382 595.988 1037.382 602.839 L 1037.382 602.839 L 1037.382 602.839 Q 1037.382 621.193 1019.341 622.815 Z  M 1025.982 592.694 L 1025.982 592.694 Q 1023.629 592.694 1022.217 594.472 L 1022.217 594.472 L 1022.217 594.472 Q 1020.805 596.25 1020.805 599.23 L 1020.805 599.23 L 1020.805 599.23 Q 1020.805 602.211 1022.008 603.754 L 1022.008 603.754 L 1022.008 603.754 Q 1023.211 605.296 1025.015 605.296 L 1025.015 605.296 L 1025.015 605.296 Q 1026.819 605.296 1028.571 604.695 L 1028.571 604.695 L 1028.571 604.695 Q 1030.323 604.094 1031.264 603.362 L 1031.264 603.362 L 1031.264 603.362 Q 1031.264 602.891 1031.264 602.42 L 1031.264 602.42 L 1031.264 602.42 Q 1031.264 592.694 1025.982 592.694 L 1025.982 592.694 Z " fill-rule="evenodd" fill="rgb(255,255,255)"/></g></g></svg>